<svg width="70" height="33" viewBox="0 0 70 33" fill="none" xmlns="http://www.w3.org/2000/svg">
<path d="M66.9545 18.3881C66.9545 17.3518 66.2191 16.5915 65.2042 16.5915C64.191 16.5915 63.4539 17.3518 63.4539 18.3881C63.4539 19.4244 64.191 20.1837 65.2042 20.1837C66.2189 20.1837 66.9545 19.4243 66.9545 18.3881ZM64.7447 18.4798V19.6548H64.3646V17.0632H65.3083C65.8604 17.0632 66.1148 17.3054 66.1148 17.7773C66.1148 18.0657 65.9181 18.2962 65.6652 18.3293V18.3418C65.8834 18.3765 65.9643 18.5723 66.0106 18.9293C66.0454 19.159 66.0917 19.5623 66.1726 19.6548H65.7231C65.6189 19.4127 65.6305 19.0673 65.5496 18.7798C65.4818 18.5607 65.3662 18.4798 65.1133 18.4798H64.7447ZM65.2158 18.1458C65.5843 18.1458 65.6884 17.95 65.6884 17.7773C65.6884 17.5707 65.5843 17.4095 65.2158 17.4095H64.7447V18.1458H65.2158ZM63.0391 18.3881C63.0391 17.1096 64.0538 16.2461 65.2042 16.2461C66.3562 16.2461 67.3693 17.1096 67.3693 18.3881C67.3693 19.6665 66.3562 20.53 65.2042 20.53C64.0539 20.5299 63.0391 19.6664 63.0391 18.3881Z" fill="#EE7203"/>
<path d="M55.5356 20.1545L53.0391 17.3548L50.5657 20.1545H45.3621L50.4492 14.4385L45.3621 8.72164H50.7294L53.249 11.4982L55.6753 8.72164H60.8558L55.7927 14.4149L60.9252 20.1545H55.5356ZM35.3654 20.1545L32.9219 10.9166L35.3654 2.14453H45.3621V6.15901H39.5998V8.72164H45.3621V12.584H39.5998V16.1293H45.3621V20.1545H35.3654Z" fill="#EE7203"/>
<path d="M31.1492 2.14453V9.51503H31.1029C30.1691 8.44201 29.0026 8.06885 27.6495 8.06885C24.877 8.06885 22.7887 9.95384 22.0557 12.4453C21.2194 9.70016 19.0635 8.01754 15.8666 8.01754C13.2701 8.01754 11.2204 9.18279 10.1502 11.0817V8.72161H4.7838V6.15899H10.6404V2.14453H0V20.1545H4.7838V12.5841H9.55194C9.40983 13.1403 9.33365 13.7357 9.33365 14.3641C9.33365 18.1208 12.2036 20.757 15.8666 20.757C18.9465 20.757 20.9765 19.3108 22.0499 16.6747H17.9503C17.3959 17.4672 16.9752 17.702 15.8666 17.702C14.5811 17.702 13.4727 16.5805 13.4727 15.2509H21.8203C22.1823 18.2349 24.5069 20.8083 27.6966 20.8083C29.0725 20.8083 30.3328 20.1314 31.1029 18.9885H31.1492V20.1546H35.3662V2.14453H31.1492ZM13.6059 12.6378C13.8719 11.4941 14.7592 10.7462 15.8669 10.7462C17.0862 10.7462 17.9282 11.4709 18.1497 12.6378H13.6059ZM28.59 17.4126C27.0356 17.4126 26.0696 15.964 26.0696 14.4517C26.0696 12.8354 26.91 11.2809 28.59 11.2809C30.3324 11.2809 31.0262 12.8353 31.0262 14.4517C31.0262 15.9846 30.2907 17.4126 28.59 17.4126Z" fill="#482683"/>
<path d="M35.3672 29.1611V22.707H38.933V23.1889H35.9555V25.568H38.8073V26.0497H35.9555V28.6783H39.066V29.161L35.3672 29.1611ZM39.4917 29.1611L41.2303 26.8431L39.5809 24.6507H40.2494L41.5956 26.4423L42.9146 24.6507H43.5831L41.9072 26.8431L43.6542 29.1611H42.9773L41.5327 27.2439L40.1602 29.1611H39.4917ZM44.7863 30.8535H44.2425V25.9969C44.2425 25.5507 44.2425 25.097 44.2151 24.6507H44.7506L44.7688 25.3283C45.1068 24.7928 45.5522 24.5441 46.2215 24.5441C47.6115 24.5441 48.2081 25.6936 48.2081 26.9052C48.2081 28.1183 47.6114 29.2678 46.2215 29.2678C45.5969 29.2678 45.1068 29.0273 44.7861 28.5101V30.8535H44.7863ZM47.6298 26.9052C47.6298 25.9433 47.2282 24.998 46.1589 24.998C45.1515 24.998 44.7864 25.8276 44.7864 26.9052C44.7864 27.9844 45.1517 28.8124 46.1589 28.8124C47.2282 28.8124 47.6298 27.8687 47.6298 26.9052ZM51.0047 25.0689C50.1039 25.0689 49.7915 25.8274 49.7915 26.6108V29.1611H49.2477V25.978C49.2477 25.5416 49.2394 25.097 49.2213 24.6507H49.7568L49.7915 25.3011C50.0593 24.7845 50.5055 24.5441 51.1022 24.5441C51.1823 24.5441 51.2717 24.5524 51.3518 24.5615V25.1053C51.2271 25.087 51.1286 25.0689 51.0047 25.0689ZM52.0178 27.0035C52.0178 28.0191 52.4988 28.857 53.488 28.857C54.254 28.857 54.611 28.3497 54.7448 27.8414H55.2621C55.0207 28.7858 54.4415 29.2677 53.4168 29.2677C52.0442 29.2677 51.4376 28.2512 51.4376 26.986C51.4376 25.6935 52.0706 24.544 53.4878 24.544C54.9232 24.544 55.3067 25.8002 55.3067 27.0033H52.0178V27.0035ZM52.0352 26.5936H54.7267C54.7267 25.711 54.3085 24.9532 53.4525 24.9532C52.6773 24.9532 52.1418 25.5416 52.0352 26.5936ZM57.429 29.2677C56.5027 29.2677 55.8077 28.8306 55.8077 27.8414H56.3514C56.3514 28.5182 56.7968 28.857 57.4563 28.857C58.0711 28.857 58.5521 28.5628 58.5521 27.958C58.5521 27.4141 57.991 27.2705 57.4026 27.1018C56.6902 26.8968 55.9143 26.6736 55.9143 25.8002C55.9143 24.8293 56.7251 24.544 57.4836 24.544C58.3564 24.544 59.0075 24.882 59.034 25.8174H58.4902C58.4638 25.2836 58.0803 24.9803 57.501 24.9803C57.0465 24.9803 56.4936 25.158 56.4936 25.7464C56.4936 26.2819 57.0465 26.4332 57.634 26.5935C58.348 26.7894 59.1314 27.0033 59.1314 27.8769C59.1313 28.8933 58.3478 29.2677 57.429 29.2677ZM61.1997 29.2677C60.2725 29.2677 59.5775 28.8306 59.5775 27.8414H60.1213C60.1213 28.5182 60.5667 28.857 61.2271 28.857C61.8418 28.857 62.3228 28.5628 62.3228 27.958C62.3228 27.4141 61.7609 27.2705 61.1725 27.1018C60.4601 26.8968 59.685 26.6736 59.685 25.8002C59.685 24.8293 60.4956 24.544 61.2534 24.544C62.1261 24.544 62.7772 24.882 62.8036 25.8174H62.26C62.2335 25.2836 61.8501 24.9803 61.2707 24.9803C60.8163 24.9803 60.2634 25.158 60.2634 25.7464C60.2634 26.2819 60.8163 26.4332 61.4046 26.5935C62.1177 26.7894 62.9021 27.0033 62.9021 27.8769C62.9021 28.8933 62.1178 29.2677 61.1997 29.2677Z" fill="#482683"/>
</svg>
